<?xml version="1.0" encoding="utf-8"?>
<!-- Generator: Adobe Illustrator 25.3.1, SVG Export Plug-In . SVG Version: 6.00 Build 0)  -->
<svg version="1.1" xmlns="http://www.w3.org/2000/svg" xmlns:xlink="http://www.w3.org/1999/xlink" x="0px" y="0px"
	 viewBox="0 0 1396.28 1417.32" style="enable-background:new 0 0 1396.28 1417.32;" xml:space="preserve">
<style type="text/css">
	.st0{fill:#575756;}
	.st1{fill:none;stroke:#E30613;stroke-width:22.6772;stroke-linecap:round;stroke-linejoin:round;stroke-miterlimit:10;}
	.st2{fill:none;stroke:#F6F6F6;stroke-width:22.6772;stroke-linecap:round;stroke-linejoin:round;stroke-miterlimit:10;}
	.st3{fill:none;stroke:#951B81;stroke-width:22.6772;stroke-linecap:round;stroke-linejoin:round;stroke-miterlimit:10;}
	.st4{fill:none;stroke:#000000;stroke-width:2.8346;stroke-linecap:round;stroke-linejoin:round;stroke-miterlimit:10;}
</style>
<g id="FOND">
	<rect class="st0" width="1396.28" height="1417.32"/>
</g>
<g id="_x38_MM">
	<path class="st1" d="M466.72,575.8c25.65,30.31,51.47,61.51,77.41,93.6c24.7,30.55,48.62,60.83,71.78,90.79
		c-7.34,6.74-23.03,19.28-46.45,24.63c-8.71,1.99-40.58,9.27-68.27-9.15c-18.96-12.61-30.29-30.42-36.91-46.62
		c-4.71-11.53-7.57-28.43-6.02-49.09c2.72-36.19,28.79-59.59,36.42-65.98"/>
	<path class="st1" d="M554.99,689.86c-2.43,5.79-5.15,14.06-6.2,24.28c-1.33,12.96,0.58,23.64,2.38,30.48"/>
	<path class="st1" d="M725.74,776.03c26.81-30.4,53.98-62.58,81.29-96.59c38.34-47.77,73.26-94.59,105.04-139.87"/>
	<path class="st1" d="M884.36,588.12c6.7,8.68,16.38,23.35,22.17,43.55c3.38,11.81,16.71,58.34-12.14,98.7
		c-24.36,34.08-62.1,40.39-67.3,41.17c-36.26,5.46-63.34-10.67-70.2-15.04"/>
	<path class="st1" d="M809.3,683.39c-1.36,4.99-2.94,13.19-1.85,23.22c1,9.21,3.86,16.37,6.07,20.85"/>
	<path class="st2" d="M394.27,758.61c15.52,12.59,38.02,29.33,67.03,45.92c30.19,17.27,84.33,47.54,160.99,58.06
		c25.02,3.43,85.57,9.3,158.88-10.03c95.42-25.16,157.97-78.65,187.38-107.68"/>
	<path class="st2" d="M937.93,781.31c0.18,16.58-1.6,41.9-12.67,69.67c-27.35,68.66-90.06,98.68-118.76,112.43
		c-66.44,31.81-129.45,29.55-164.15,24.81c-28.74-3.92-95.1-13.95-152.54-69.15c-49.92-47.97-65.91-103.92-71.26-127.73"/>
	<path class="st2" d="M515.67,843.06c0.85,15.91,1.12,33.02,0.53,51.2c-0.39,11.96-1.12,23.41-2.11,34.31"/>
	<path class="st2" d="M612.26,870.51c1.45,12.25,2.7,24.92,3.69,38c1.68,21.95,2.48,42.93,2.64,62.81"/>
	<path class="st2" d="M759.52,865.23c1.5,16.51,2.91,33.22,4.22,50.14c1.38,17.8,2.6,35.4,3.69,52.78"/>
	<path class="st2" d="M866.67,826.7c1.75,13.34,3.34,27.07,4.75,41.17c1.52,15.17,2.73,29.96,3.69,44.34"/>
	<path class="st3" d="M967.14,951.62c10.1-0.56,25.15-0.21,42.23,4.93c41.19,12.38,63.43,43.38,69.67,52.08
		c46.3,64.52,22.84,155.85-9.15,205.5c-22.52,34.96-46.2,44.49-51.38,46.45c-25.64,9.71-48.97,4.76-58.41,2.11
		c-46.51-13.07-65.13-57.28-67.56-63.34c-0.84-3.04-2.52-7.43-6.2-11.22c-5.31-5.47-19.46-14.53-83.53,3.96
		c-22.97,6.63-35.69,11.99-45.39,15.35c-56.26,19.49-110.94,6.39-137.59,0c-62.35-14.95-104.38-46.57-124.57-64.04"/>
	<path class="st3" d="M730.32,1221.87c3.03,5.16,8.05,12.6,15.83,20.06c7.88,7.55,18.43,17.66,34.48,19.71
		c4.83,0.62,16.97,2.16,27.8-5.63c10.65-7.67,13.07-19.37,13.72-22.52c3.9-18.83-7.65-33.6-9.5-35.89"/>
	<path class="st3" d="M398.48,1080.78c-15.14-14.72-35.4-36.97-54.3-67.34c-40.51-65.06-49.2-126.28-54.3-165.08
		c-8.31-63.26-2.94-118.92,5.79-162.18"/>
	<path class="st3" d="M1050.12,967.1c4.75-10.49,10.98-25.54,16.65-44.17c4.27-14.01,16.85-58.34,15.93-118.02
		c-0.29-18.91-2.02-44.27-7.96-73.85"/>
	<path class="st3" d="M1016.09,495.03c12.33,18.9,26.18,43.83,37.65,74.58c13.22,35.44,19.08,67.38,21.72,91.95"/>
	<path class="st3" d="M1087.77,787.54c12.94-6.93,29.43-16.46,47.79-28.96c37.54-25.57,63.4-50.32,83.26-69.51
		c11.49-11.1,25.08-24.87,39.82-41.27c10.21-1.77,20.59-3.7,31.13-5.79c7.1-1.41,14.1-2.86,21-4.34c3.82-2.85,5.21-5.76,5.79-7.6
		c2.85-9.02-4.46-21.57-19.01-29.87c13.41-13.74,26.83-27.47,40.24-41.21c1.32-4.4,0.83-7.36-0.24-9.41
		c-8.33-15.9-64.16-0.32-69.51,1.21"/>
	<path class="st3" d="M1285.91,540.65c1.69-1.46,6.81-6.24,6.76-12.79c0,0-0.05-6.26-6.52-12.31
		c-15.03-14.05-82.83,10.49-112.95,20.03c-28.34,8.98-67.94,18.81-118.02,22.93"/>
	<path class="st3" d="M1049.4,542.09c22.38-45.35,43.45-80.83,58.65-104.99c30.99-49.24,51.42-73.35,100.64-146.98
		c18.14-27.14,32.61-49.66,41.99-64.44c1.2-1.81,3.04-5.12,3.62-9.59c0.68-5.23-0.69-9.43-1.09-10.32
		c-4.8-10.77-70.92,6.41-78.2,8.33c-39.89,10.14-83.41,23.31-129.48,40.55c-57.49,21.5-108.09,45.27-151.57,68.54
		c-1.94,1.8-7.77,6.73-16.53,7.36c-4.55,0.33-8.27-0.62-10.62-1.45c-0.79-1.83-1.76-4.62-1.93-8.09
		c-0.3-6.04,2.03-10.12,10.02-23.53c7.37-12.37,10.02-16.68,11.34-23.89c0.56-3.05,0.7-5.62,0.72-7.36
		c-0.53-1.94-1.42-3.3-2.53-4.22c-12.44-10.35-59.82,27.22-82.66,46.34c-1.5,0.98-4.17,2.42-7.72,2.78
		c-4.6,0.45-9.7-1.02-11.83-3.26c-5.18-5.46,3.56-19.38,15.93-47.18c13.36-30.02,16.46-43.67,17.86-51.41
		c1.8-9.95,2.29-18.31,2.41-23.89c0.08-3.02-0.23-7.99-3.5-10.62c-6.7-5.4-21.29,2.66-27.39,6.03
		C754.9,198.82,669.8,283.33,647.55,305.57c-0.82,1.55-4.54,8.14-12.43,10.5c-1.93,0.58-6.77,2.02-11.22-0.12
		c-3.49-1.68-4.68-4.57-10.14-17.38c-4.4-10.33-6.69-15.56-10.62-18.34c-0.93-0.66-5.2-3.68-8.93-3.26
		c-8.52,0.97-15.16,20.03-17.01,46.58c-12.28-5.55-25.86-12.6-40.06-21.6c-9.97-6.32-18.88-12.73-26.79-18.95
		c-4.71-3.56-7.93-3.39-9.53-3.02c-9.41,2.18-10.56,22.34-10.62,23.65c-0.83,17.48,9.8,30.88,14.72,36.32"/>
	<path class="st3" d="M555.6,351.31c-7.72-0.24-15.45-0.48-23.17-0.72c-75.72-18.1-126.46-42.43-159.65-62.27
		c-15.29-9.14-48.75-30.41-98.83-51.04c-21.42-8.83-39.58-14.94-51.95-18.82c-1.92-0.4-4.74-0.82-8.15-0.72
		c-4.3,0.12-11.43,0.33-14.84,4.34c-3.75,4.41-2.75,13.14,2.72,21c19.62,38.97,39.19,81.84,57.74,128.52
		c25.06,63.06,44.08,122.63,58.65,177.03"/>
	<path class="st3" d="M337.67,595.67c2.53-14.11,7.43-32.69,17.38-52.85c14.29-28.97,32.78-48.55,45.61-60.1"/>
	<path class="st3" d="M940.04,1213.06c-5.88-12.89-8.31-24.14-9.41-31.86c-1.81-12.64-3.1-21.6,1.45-31.13
		c5.42-11.38,15.89-16.76,20.64-18.82c0.24,3,0.85,7.2,2.53,11.95c1.49,4.2,4.85,13.69,9.05,14.48c3.96,0.74,10.74-5.86,23.17-36.56
		c2.69-1.01,7.48-2.28,12.67-0.72c8.9,2.66,15.37,12.54,15.57,24.62c0.45,5.52,2.07,7.09,3.26,7.6c4.53,1.96,14.26-6.34,19.91-14.84
		c3.46-5.21,4.31-8.86,8.69-10.86c2.77-1.27,7.2-1.99,10.14,0c6.81,4.6,2.1,21.35,1.09,24.98c-1.93,6.86-7.32,21.02-24.62,34.39"/>
	<path class="st3" d="M336.58,570.69c-8.22-7.09-21.4-17.06-39.46-24.98c-15.11-6.62-24.99-8.02-66.97-15.2
		c0,0-31.7-5.42-68.06-11.95c-27.2-4.88-49.23-9.33-63.53-12.31"/>
	<path class="st3" d="M103.08,510.06c3.21,7.99,6.99,13.71,9.96,17.56c5.94,7.69,10.57,10.34,10.86,16.29
		c0.31,6.32-4.52,11.07-5.25,11.77c-5.36,5.12-12.54,5.06-18.46,5.43c-8.16,0.52-19.8,2.24-34.39,7.78"/>
	<path class="st3" d="M70.01,571.06c2.66,4.25,6.99,9.89,13.76,14.72c16.38,11.71,34.64,9.88,39.82,9.17"/>
	<path class="st3" d="M121.42,603.64c-2.31,3.28-5.62,8.84-7.24,16.41c-1.36,6.33-2.68,12.5,0.48,17.86
		c4.84,8.2,17.43,9.88,25.82,8.21c5.88-1.17,6.81-3.42,11.83-4.34c9.25-1.71,18.07,3.7,24.38,8.93
		c13.59,17.05,29.81,35.49,48.99,54.3c17.89,17.54,35.39,32.49,51.65,45.13"/>
	<path class="st3" d="M577.14,1199.34c3.56,4.55,8.36,11.81,11.58,21.72c2.53,7.75,3.28,14.65,3.44,19.73"/>
	<path class="st3" d="M588.36,1237.35c-3.75-1.1-9.22-2.68-15.93-4.53c-8.18-2.25-12.26-3.25-15.93-1.09c0,0-2.01,1.19-3.44,3.44
		c-6.06,9.54,11.39,34.02,12.31,35.3"/>
	<path class="st3" d="M561.39,1271.02c-4.11,1.03-10.63,2.03-18.28,0.54c-16.53-3.21-25.65-15.6-27.88-18.82"/>
	<path class="st3" d="M520.12,1263.06c-0.13,2.21-0.72,6.36-3.62,10.14c-4.78,6.23-12.68,7.29-16.11,7.24
		c-12.72-0.17-18.87-16.28-31.5-31.31c-16.77-19.97-27.77-17.57-55.69-37.29c-27.63-19.51-45.16-41.86-51.65-51.17
		c-33.52-48.08-24.48-109.98-18.82-136.6"/>
</g>
<g id="DECOUPE">
	<g>
		<path class="st4" d="M396.75,253.98c-1.82-0.9-3.59-1.88-5.32-2.92c-0.66-0.4-1.36-0.82-2.08-1.26
			c-17.96-10.86-51.38-31.08-99.57-50.94c-17.95-7.4-36.38-14.08-54.8-19.88c-1.19-0.37-3.15-0.92-4.37-1.17
			c-5.91-1.24-11.95-1.78-17.95-1.61c-8.19,0.24-29.93,0.86-45.31,18.98c-15.61,18.39-16.15,45.6-1.67,68.65
			c20.09,40.07,38.65,81.47,55.19,123.09c12.16,30.6,23.41,61.78,33.65,93.28c1.93,5.93-3.14,11.8-9.29,10.75l-0.15-0.03l-7.93-1.35
			c-0.32-0.05-31.97-5.47-67.73-11.89c-20.97-3.76-41.97-7.83-62.39-12.09c-22.46-4.69-44.46,9.73-49.14,32.19
			c-1.4,6.71-1.09,13.38,0.63,19.56c1.42,5.1-1.41,10.45-6.38,12.3c-0.1,0.04-0.2,0.08-0.31,0.11
			c-21.42,8.02-32.99,32.45-24.89,53.84c3.04,8.02,8.3,14.55,14.81,19.16c5.2,6.38,11.17,12.03,17.86,16.81l0.68,0.48
			c6.34,4.53,10.41,11.49,11.57,19.19c0.95,6.29,3.04,13.02,7.02,19.77c7.81,13.24,21.13,22.16,37.02,26.94
			c2.6,0.78,6.49,1.44,10.47,1.87c0.26,0.03,1.65-0.03,3.65-0.14c13.72-0.75,27.04,4.75,36.17,15.02
			c9.78,11.02,19.95,21.7,30.42,31.97c9.28,9.1,18.9,17.97,28.78,26.53c11.69,10.13,18.59,24.66,19.07,40.13
			c0.54,17.54,1.96,35.04,4.25,52.45c4.02,30.57,10.85,82.56,38.03,140.71c8.18,17.5,11.77,36.86,10.03,56.11
			c-1.1,12.18-1.37,24.14-0.79,35.77c1.86,37.74,12.46,70.73,31.52,98.06c7.32,10.5,27.98,37.48,61.76,61.34
			c13.93,9.84,24.71,15.3,32.57,19.29c8.97,4.55,10.84,5.5,15.27,10.78c2.49,2.96,4.89,6.4,7.44,10.04
			c9.36,13.35,25.01,35.7,55.31,36.1c0.28,0,0.57,0.01,0.85,0.01c10.15,0,19.99-2.43,28.69-6.88c3.54-1.81,7.5-2.62,11.44-2.17
			c3.73,0.43,7.75,0.89,7.88,0.92c0.37,0.07,1.42,0.03,2.28,0.03c6.04,0,12.1-0.67,18.13-2c7.21-0.64,14.34-3.16,20.62-7.71
			c5.8-4.2,10.2-9.61,13.09-15.64c2.43-5.06,6.21-9.35,10.99-12.28c2.77-1.7,5.32-3.7,7.61-5.98c9.99-9.93,23.92-14.75,37.91-13.07
			c9.5,1.15,19.75,1.94,30.55,2.09c9.53,0.13,18.72,3.84,25.45,10.59c0.69,0.69,1.38,1.37,2.08,2.04
			c9.9,9.48,28.32,27.14,57.98,30.92c4.29,0.55,8.47,0.82,12.55,0.82c16.87,0,31.88-4.67,44.77-13.95
			c10.84-7.81,11.47-7.33,17.58-16.09c0.22-0.32,0.44-0.65,0.66-0.98c8.68-13.49,27.31-15.74,38.75-4.49
			c14.47,14.23,33.82,27.42,59.17,34.54c8.64,2.43,21.9,5.16,37.78,5.16c13.96,0,29.95-2.12,46.58-8.42
			c15.38-5.82,45.12-21.72,71.58-62.8c21.19-32.89,35.88-74.85,40.3-115.14c5.74-52.21-5.44-99.61-32.32-137.08l-0.16-0.22
			c-9.41-13.1-12.19-29.89-7.33-45.27c0.41-1.29,0.81-2.58,1.2-3.87c7.91-25.95,13.33-54.74,15.95-83.99
			c2.04-22.72,14.37-43.29,33.31-56c1.06-0.71,2.12-1.43,3.17-2.15c41.24-28.09,69.82-55.69,88.73-73.95
			c8.55-8.26,17-16.77,25.27-25.45c4.5-4.73,10.36-7.92,16.77-9.16c2.72-0.52,5.44-1.05,8.15-1.59c7.19-1.43,14.47-2.93,21.66-4.48
			c5.83-1.26,11.32-3.75,16.1-7.32c9.91-7.39,17.01-17.2,20.55-28.36c2.64-8.33,3.23-16.89,1.97-25.29
			c-1.61-10.7,1.82-21.55,9.39-29.29h0c4.7-4.81,8.16-10.69,10.08-17.13c5.41-18.1,1.22-32.06-3.24-40.59
			c-4.88-9.32-17.3-25.44-45.64-28.72c-0.52-0.06-1.06-0.1-1.59-0.15c-2.88-5.34-6.93-10.92-12.6-16.22
			c-21.87-20.45-54.56-16.52-80.59-10.82c-21.6,4.73-45.09,12.41-62.25,18.02c-4.05,1.32-7.77,2.54-11.03,3.57
			c-0.15,0.05-0.3,0.1-0.45,0.14c-17.01,5.37-31.56-13.38-22.2-28.56c1.72-2.79,3.45-5.56,5.19-8.33c16-25.42,29.02-43.8,45.5-67.08
			c14.7-20.76,31.35-44.28,54.52-78.94c14.39-21.53,28.65-43.41,42.38-65.03c5.24-8.07,8.66-17.29,9.89-26.71
			c2.09-15.96-2.33-28.11-4.33-32.61c-3.42-7.68-12.19-21.29-32.53-26.26c-5.72-1.4-12.05-2.01-19.38-1.88
			c-8.52,0.15-18.8,1.31-31.43,3.55c-18.78,3.32-37.62,8.14-43.22,9.61c-45.1,11.48-90.05,25.56-133.61,41.85
			c-33.44,12.51-66.56,26.51-99,41.83c-1.99,0.94-4.35-0.14-4.93-2.27l-0.01-0.04c-2.75-10.04-8.29-18.74-16.04-25.19
			c-16.75-13.93-36.29-12.42-49.34-8.92c-2.73,0.73-5.29-1.62-4.78-4.41l0.01-0.06c1.81-9.97,2.84-20.16,3.07-30.29
			c0.62-24.47-11.61-38.05-18.97-43.98c-8.23-6.63-26.09-16.4-53.2-7.3c-8.82,2.96-16.31,7.1-20.34,9.32
			c-21.97,12.13-61.35,45.79-117.31,100.22c-6.2,6.03-15.82,6.77-22.87,1.77l-0.13-0.09c-14.99-10.61-28.73-11.64-37.62-10.63
			c-7.35,0.84-18.44,3.86-28.6,13.63c-6.68,6.43-17.02,7.19-24.33,1.48c-0.19-0.15-0.39-0.3-0.58-0.45
			c-0.21-0.16-0.42-0.33-0.63-0.48c-13.41-10.13-29.02-13.81-43.96-10.34c-4.04,0.94-10.63,3.09-17.45,7.96
			c-22.56,16.11-51.95,19.05-76.78,6.72L396.75,253.98z"/>
	</g>
	<circle class="st4" cx="270.54" cy="504.66" r="11.08"/>
	<circle class="st4" cx="1115.6" cy="508.04" r="11.08"/>
</g>
</svg>
