<svg id="Calque_1" data-name="Calque 1" xmlns="http://www.w3.org/2000/svg" viewBox="0 0 1993.2 744.67">
    <defs>
        <style>
            .cls-1 {
                fill: none;
            }
        </style>
    </defs>
    <g id="DECOUPE">
        <circle class="cls-1" cx="31.18" cy="160.18" r="11.34" />
        <circle class="cls-1" cx="1954.58" cy="486.45" r="11.34" />
        <path class="cls-1"
            d="M2116.4,875.79l0-1.45c0-.26,0-.53,0-.8a125.62,125.62,0,0,0-2.15-19.54,95.19,95.19,0,0,0,1.06-27.43v-.12a134.06,134.06,0,0,0-22.55-61.85,24.86,24.86,0,1,0-35-34.6c-22.71-15.21-50.19-23.18-80.36-23.18a152.71,152.71,0,0,0-53.32,9.23,136.36,136.36,0,0,0-49.29-8.89,138.64,138.64,0,0,0-21.87,1.7,94.17,94.17,0,0,0-9.77-.51h-32a93.27,93.27,0,0,0-28.43,4.45,153.72,153.72,0,0,0-39.42-5.95,113.79,113.79,0,0,0-12.49-13.74l-.1-.09a113.82,113.82,0,0,0-77.78-30.13c-24.16,0-46.42,6.85-65.26,20h-21.75a94.79,94.79,0,0,0-64.55,25.61c-1.33.06-2.76.16-4.26.3a138.51,138.51,0,0,0-23-1.92,142.69,142.69,0,0,0-15.54.84A94.54,94.54,0,0,0,1395,682.84h-32a94.26,94.26,0,0,0-62.84,24.1q-3.16-.12-6.35-.12a153.5,153.5,0,0,0-54.82,9.74,149.43,149.43,0,0,0-54.16-9.74,157.44,157.44,0,0,0-36,4.11,100.06,100.06,0,0,0-27.67-3.81A112.21,112.21,0,0,0,1101,709a94.73,94.73,0,0,0-10.64-.6h-9.12a142.11,142.11,0,0,0-19.28-11.75l-.5-.25-1.6-.78c.75-.92,1.48-1.87,2.2-2.82a112.79,112.79,0,0,0,21.75-84.17A410.43,410.43,0,0,0,734.14,259.39a114.07,114.07,0,0,0-15.89-1.12c-48.25,0-90.66,31-106.71,75a336.59,336.59,0,0,0-150.86,73.32,185.53,185.53,0,0,0-295.89-9.68,23.69,23.69,0,0,0-10.41-2.38,23.92,23.92,0,0,0-14.65,42.84A184.94,184.94,0,0,0,123.2,514V725.52a113.08,113.08,0,0,0,6.93,39.05,113,113,0,0,0-6.93,39v10.83c0,102.54,83.42,186,186,186a186.7,186.7,0,0,0,151.59-78.64,337.89,337.89,0,0,0,397.16,29.1,94.49,94.49,0,0,0,83.65,50.66h32a93.93,93.93,0,0,0,42.39-10.12,94,94,0,0,0,42.39,10.12h32a93.7,93.7,0,0,0,39.25-8.55,152.79,152.79,0,0,0,55.2,10,149.32,149.32,0,0,0,55-10.11,155.92,155.92,0,0,0,56.26,10.11,152.46,152.46,0,0,0,54.67-9.74,142.8,142.8,0,0,0,49.23,8.32h16.18a91.81,91.81,0,0,0,23.2-3,142.33,142.33,0,0,0,34.76,4.35,135.71,135.71,0,0,0,22.34-1.83c3.09.31,6.2.46,9.31.46h32a92.33,92.33,0,0,0,28.61-4.48,146.25,146.25,0,0,0,36.43,4.48H1619a82.19,82.19,0,0,0,8.86-.48,83.25,83.25,0,0,0,9,.48h32a93.25,93.25,0,0,0,28.42-4.45,155.71,155.71,0,0,0,42.12,5.83,157.34,157.34,0,0,0,42.8-6,93.48,93.48,0,0,0,28.94,4.6h32a94.68,94.68,0,0,0,20-2.12,94.75,94.75,0,0,0,20,2.12h31.77a91.65,91.65,0,0,0,25.25-3.54,163.49,163.49,0,0,0,39.78,4.88c21.2,0,41.61-4,59-11.59A129.15,129.15,0,0,0,2093.7,948l.31-.44a122.43,122.43,0,0,0,22.39-71.07Z"
            transform="translate(-123.2 -258.27)" />
    </g>
    <g id="_12MM" data-name="12MM">
        <circle class="cls-1" cx="554.14" cy="405.92" r="152.15" />
        <path class="cls-1" d="M308.61,512.5V814.31" transform="translate(-123.2 -258.27)" />
        <path class="cls-1" d="M381.49,580.94c0,7,0,10,0,17V815.41a73.86,73.86,0,0,1-146.8,8.76V807.52"
            transform="translate(-123.2 -258.27)" />
        <path class="cls-1"
            d="M236.85,744.72V723.93Q236,617.4,235.21,510.86c3.68-39.27,36.87-69,74.49-68.47,34.8.46,65.51,26.63,71.76,62.44.12,12.24-.12,4.65,0,16.88"
            transform="translate(-123.2 -258.27)" />
        <path class="cls-1"
            d="M640,441.29c-104.47,23-180,111.05-185.13,211.44-6.05,118.35,87.06,228.85,209.78,236.62,111.08,7,213.79-72.16,236.08-185.68v-3.26"
            transform="translate(-123.2 -258.27)" />
        <path class="cls-1" d="M900.17,627c-3.49-19.66-16.06-75.42-65.18-123.24a228.86,228.86,0,0,0-115.57-60.25"
            transform="translate(-123.2 -258.27)" />
        <path class="cls-1" d="M715,371.73h3.29c26.16,3.52,97.36,16.63,161,75.59,73.24,67.81,88,151.38,91.47,175.83"
                    transform="translate(-123.2 -258.27)" />
    </g>
    <g id="_8MM" data-name="8MM">
        <path class="cls-1"
            d="M1296,960.42a112.31,112.31,0,0,1-44.45-8.68,109.27,109.27,0,0,1-11.81-6.19,102.37,102.37,0,0,1-9.89,5.34,107.31,107.31,0,0,1-45.08,9.53c-19,0-36.49-4.28-52-12.73-1.72-1-3.25-2-4.75-3l-1.2-.81a51.31,51.31,0,0,1-36.45,15.1h-32a51.53,51.53,0,0,1-42.39-22.19A51.5,51.5,0,0,1,973.55,959h-32a51.93,51.93,0,0,1-51.88-51.88V871c-56,57-130.61,88.39-210.65,88.39-90.2,0-174-40.47-230.54-111.15C433,912,375,957.88,309.16,957.88c-79.09,0-143.44-64.35-143.44-143.44V803.61a70.65,70.65,0,0,1,11.73-39,70.63,70.63,0,0,1-11.73-39.05V514c0-79.11,64.35-143.47,143.44-143.47,65.73,0,123.74,45.83,139.29,109.46A294.1,294.1,0,0,1,627.86,373.45a60.7,60.7,0,0,1,11-1,77.22,77.22,0,0,1,8.45.51,69.63,69.63,0,0,1,.62-10.84,71.39,71.39,0,0,1,70.32-61.31,70,70,0,0,1,9.94.7,367.91,367.91,0,0,1,313.49,313,71.15,71.15,0,0,1-60.46,80.3,68.22,68.22,0,0,1-9.44.7l-1.35,0a71.12,71.12,0,0,1-.64,19.93c-.36,2.12-.84,4.15-1.33,6.2l-.51,2.22h25.44c18.29,0,34.87,3.59,49.29,10.68a95.21,95.21,0,0,1,23.22,16.36h24.43a52.25,52.25,0,0,1,11.88,1.38,71.42,71.42,0,0,1,18.88-2.61,55.07,55.07,0,0,1,25.8,6.11,112,112,0,0,1,37.89-6.41,106.89,106.89,0,0,1,52.44,13.18l.67.36,1.25.83a98.48,98.48,0,0,1,10.68-5.68,109.27,109.27,0,0,1,43.94-8.69h0a116.47,116.47,0,0,1,24.11,2.47A51.73,51.73,0,0,1,1363,725.36h32A51.85,51.85,0,0,1,1441.64,755a96.41,96.41,0,0,1,54.45-3,40.42,40.42,0,0,1,9.61-1h15.57a52,52,0,0,1,44.64-25.51h32a37.16,37.16,0,0,1,4.39.32c.09,0,.13,0,.14.07l1.62-1.61c13.26-12.38,30-18.73,48.87-18.73a71.45,71.45,0,0,1,48.85,18.77,68.13,68.13,0,0,1,17.86,27.1,112.49,112.49,0,0,1,20.31-1.94,110.83,110.83,0,0,1,44.38,9.13,51.76,51.76,0,0,1,26.82-7.6h32a53,53,0,0,1,10.78,1.12,89,89,0,0,1,20.86-2.31c18.07,0,34.52,4.54,48.93,13.49a90.56,90.56,0,0,1,8.66-4.64,109.54,109.54,0,0,1,45-9.19c25.86,0,47.66,7.46,64.82,22.16,17.53,15.1,28.16,35.7,30.79,59.6a52.47,52.47,0,0,1-2.69,23,70.31,70.31,0,0,1,3.55,20.91l0,1.45A79.92,79.92,0,0,1,2059.29,923a85.76,85.76,0,0,1-37.1,29.22c-12.09,5.29-26.76,8.13-42.23,8.13a115.63,115.63,0,0,1-41.28-7.36,50.88,50.88,0,0,1-23.75,6h-31.77a51.49,51.49,0,0,1-20-4,51.59,51.59,0,0,1-20,4h-32a51.69,51.69,0,0,1-27.09-7.75,114,114,0,0,1-44.65,9.13,111.59,111.59,0,0,1-43.86-8.93,51.48,51.48,0,0,1-26.68,7.55h-32a51.59,51.59,0,0,1-9.21-.93,41.14,41.14,0,0,1-8.61.93h-16.3a98.93,98.93,0,0,1-38.59-7.42A51,51,0,0,1,1537.7,959h-32a51.94,51.94,0,0,1-10.57-1.08,87,87,0,0,1-21.08,2.45,97.91,97.91,0,0,1-35.57-6.67,51.14,51.14,0,0,1-22.39,5.3h-16.18c-18.81,0-35.47-4.34-49.56-12.89a93.89,93.89,0,0,1-11.75,6.09C1326.36,957.56,1311.59,960.42,1296,960.42Zm489.13-201.59"
            transform="translate(-123.2 -258.27)" />
        <path class="cls-1" d="M956.23,897.53V788.38" transform="translate(-123.2 -258.27)" />
        <path class="cls-1"
            d="M967.62,847.24c6.21,0,19.65-.06,25.86-.06,16.86,1.07,31.27-12.19,31.76-28.49.48-15.62-12-29.34-28.11-30.31h-40.9"
            transform="translate(-123.2 -258.27)" />
        <path class="cls-1" d="M1073.44,894.12V813.56" transform="translate(-123.2 -258.27)" />
        <path class="cls-1" d="M1079.63,833.66c2.15-3,12.33-12,18.54-15.85,8.55-5.26,13.65-2.52,17.65-2.65"
            transform="translate(-123.2 -258.27)" />
        <path class="cls-1"
            d="M1219.62,853.38c4.34-27-13.33-39.07-34.62-39.8-20.28-.69-39,18.68-39.07,40.53-.12,21.21,17.23,41.06,38,40.9,14.17-.1,11.76.55,28.93-2.69"
            transform="translate(-123.2 -258.27)" />
        <path class="cls-1" d="M1213.53,853.38h-49.34" transform="translate(-123.2 -258.27)" />
        <path class="cls-1"
            d="M1324.5,831.29c-6-13.88-18-18.55-31.23-18.81-12.73-.24-28.72,3.66-28.3,20.45.19,7.46,7.45,14.57,17.35,18.08l27,8.4c1.43.68,13.67,6.27,13.69,15.88.06,18.83-14.08,21.44-26.1,22.46-14,1.19-24.65-2.74-33.78-18.07"
            transform="translate(-123.2 -258.27)" />
        <path class="cls-1" d="M1348.41,816.14h68.84" transform="translate(-123.2 -258.27)" />
        <path class="cls-1" d="M1378.72,775.42V873.1c-.08,1.21-.53,10.76,6.94,17.35a21.12,21.12,0,0,0,13.15,5.11h19"
            transform="translate(-123.2 -258.27)" />
        <path class="cls-1" d="M1521.68,812.47v85.06" transform="translate(-123.2 -258.27)" />
        <path class="cls-1"
            d="M1479,815.22c-4.5-.16-17.91-.63-27,8.77-4.7,4.85-6.19,10.19-7.67,15.52-1.1,4-4.83,18.2,2,33.59,2.24,5,5.38,12.11,13,16.8,11.87,7.34,25.45,3.19,30.49,1.64a45.28,45.28,0,0,0,21.18-13.87,37,37,0,0,0,8.95-18.26c2-12.25-3.46-21.78-4.93-24.28C1503.94,816.48,1481.18,815.3,1479,815.22Z"
            transform="translate(-123.2 -258.27)" />
        <path class="cls-1" d="M1556.08,816.14h58.79" transform="translate(-123.2 -258.27)" />
        <path class="cls-1" d="M1581.77,775.42V873.1c-.07,1.21-.53,10.76,6.94,17.35a21.12,21.12,0,0,0,13.15,5.11h19"
            transform="translate(-123.2 -258.27)" />
        <path class="cls-1" d="M1652.6,816.14V898" transform="translate(-123.2 -258.27)" />
        <circle class="cls-1" cx="1739.89" cy="854.93" r="40.63" transform="translate(-317.93 472.63) rotate(-22.5)" />
        <path class="cls-1" d="M1826.42,800.8V898" transform="translate(-123.2 -258.27)" />
        <path class="cls-1"
            d="M1899.2,898c-.12-20.69-.18-30.63-.3-51.32.31-13.11-6-24.9-16.25-30-9.78-4.8-25.68-2.42-28.15-2.12-18.4,2.22-22.55,12-24.21,14.41"
            transform="translate(-123.2 -258.27)" />
        <path class="cls-1"
            d="M2007.74,837.73c-4.81-15.07-17.14-25.31-30.31-25.56-12.73-.24-28.84,8.8-28.3,20.45.35,7.45,7.45,14.56,17.35,18.07l27,8.4c1.43.69,12.81,6.32,13.69,15.89,1.07,11.63-14.08,21.43-26.1,22.45-14,1.19-28.54-9.17-35.24-25.92"
            transform="translate(-123.2 -258.27)" />
        <path class="cls-1" d="M1652.69,778.44c-.17-5.6,0-.44-.18-6" transform="translate(-123.2 -258.27)" />
    </g>
</svg>