<svg id="Calque_1" data-name="Calque 1" xmlns="http://www.w3.org/2000/svg" viewBox="0 0 1993.2 744.67">
    <defs>
        <style>
            .cls-1 {
                fill: none;
            }
        </style>
    </defs>
    <g id="_8MM" data-name="8MM">
        <path class="cls-1"
            d="M1296,960.42a112.31,112.31,0,0,1-44.45-8.68,109.27,109.27,0,0,1-11.81-6.19,102.37,102.37,0,0,1-9.89,5.34,107.31,107.31,0,0,1-45.08,9.53c-19,0-36.49-4.28-52-12.73-1.72-1-3.25-2-4.75-3l-1.2-.81a51.31,51.31,0,0,1-36.45,15.1h-32a51.53,51.53,0,0,1-42.39-22.19A51.5,51.5,0,0,1,973.55,959h-32a51.93,51.93,0,0,1-51.88-51.88V871c-56,57-130.61,88.39-210.65,88.39-90.2,0-174-40.47-230.54-111.15C433,912,375,957.88,309.16,957.88c-79.09,0-143.44-64.35-143.44-143.44V803.61a70.65,70.65,0,0,1,11.73-39,70.63,70.63,0,0,1-11.73-39.05V514c0-79.11,64.35-143.47,143.44-143.47,65.73,0,123.74,45.83,139.29,109.46A294.1,294.1,0,0,1,627.86,373.45a60.7,60.7,0,0,1,11-1,77.22,77.22,0,0,1,8.45.51,69.63,69.63,0,0,1,.62-10.84,71.39,71.39,0,0,1,70.32-61.31,70,70,0,0,1,9.94.7,367.91,367.91,0,0,1,313.49,313,71.15,71.15,0,0,1-60.46,80.3,68.22,68.22,0,0,1-9.44.7l-1.35,0"
            transform="translate(-123.2 -258.27)" />
    </g>
</svg>