<svg id="Calque_1" data-name="Calque 1" xmlns="http://www.w3.org/2000/svg" viewBox="0 0 1993.2 744.67">
    <defs>
        <style>
            .cls-1 {
                fill: none;
            }
        </style>
    </defs>
    <g id="_8MM" data-name="8MM">
        <path class="cls-1"
            d="M1296,960.42a112.31,112.31,0,0,1-44.45-8.68,109.27,109.27,0,0,1-11.81-6.19,102.37,102.37,0,0,1-9.89,5.34,107.31,107.31,0,0,1-45.08,9.53c-19,0-36.49-4.28-52-12.73-1.72-1-3.25-2-4.75-3l-1.2-.81a51.31,51.31,0,0,1-36.45,15.1h-32a51.53,51.53,0,0,1-42.39-22.19A51.5,51.5,0,0,1,973.55,959h-32a51.93,51.93,0,0,1-51.88-51.88V871c-56,57-130.61,88.39-210.65,88.39-90.2,0-174-40.47-230.54-111.15C433,912,375,957.88,309.16,957.88c-79.09,0-143.44-64.35-143.44-143.44V803.61a70.65,70.65,0,0,1,11.73-39,70.63,70.63,0,0,1-11.73-39.05V514c0-79.11,64.35-143.47,143.44-143.47,65.73,0,123.74,45.83,139.29,109.46A294.1,294.1,0,0,1,627.86,373.45a60.7,60.7,0,0,1,11-1,77.22,77.22,0,0,1,8.45.51,69.63,69.63,0,0,1,.62-10.84,71.39,71.39,0,0,1,70.32-61.31,70,70,0,0,1,9.94.7,367.91,367.91,0,0,1,313.49,313,71.15,71.15,0,0,1-60.46,80.3,68.22,68.22,0,0,1-9.44.7l-1.35,0a71.12,71.12,0,0,1-.64,19.93c-.36,2.12-.84,4.15-1.33,6.2l-.51,2.22h25.44c18.29,0,34.87,3.59,49.29,10.68a95.21,95.21,0,0,1,23.22,16.36h24.43a52.25,52.25,0,0,1,11.88,1.38,71.42,71.42,0,0,1,18.88-2.61,55.07,55.07,0,0,1,25.8,6.11,112,112,0,0,1,37.89-6.41,106.89,106.89,0,0,1,52.44,13.18l.67.36,1.25.83a98.48,98.48,0,0,1,10.68-5.68,109.27,109.27,0,0,1,43.94-8.69h0a116.47,116.47,0,0,1,24.11,2.47A51.73,51.73,0,0,1,1363,725.36h32A51.85,51.85,0,0,1,1441.64,755a96.41,96.41,0,0,1,54.45-3,40.42,40.42,0,0,1,9.61-1h15.57a52,52,0,0,1,44.64-25.51h32a37.16,37.16,0,0,1,4.39.32c.09,0,.13,0,.14.07l1.62-1.61c13.26-12.38,30-18.73,48.87-18.73a71.45,71.45,0,0,1,48.85,18.77,68.13,68.13,0,0,1,17.86,27.1,112.49,112.49,0,0,1,20.31-1.94,110.83,110.83,0,0,1,44.38,9.13,51.76,51.76,0,0,1,26.82-7.6h32a53,53,0,0,1,10.78,1.12,89,89,0,0,1,20.86-2.31c18.07,0,34.52,4.54,48.93,13.49a90.56,90.56,0,0,1,8.66-4.64,109.54,109.54,0,0,1,45-9.19c25.86,0,47.66,7.46,64.82,22.16,17.53,15.1,28.16,35.7,30.79,59.6a52.47,52.47,0,0,1-2.69,23,70.31,70.31,0,0,1,3.55,20.91l0,1.45A79.92,79.92,0,0,1,2059.29,923a85.76,85.76,0,0,1-37.1,29.22c-12.09,5.29-26.76,8.13-42.23,8.13a115.63,115.63,0,0,1-41.28-7.36,50.88,50.88,0,0,1-23.75,6h-31.77a51.49,51.49,0,0,1-20-4,51.59,51.59,0,0,1-20,4h-32a51.69,51.69,0,0,1-27.09-7.75,114,114,0,0,1-44.65,9.13,111.59,111.59,0,0,1-43.86-8.93,51.48,51.48,0,0,1-26.68,7.55h-32a51.59,51.59,0,0,1-9.21-.93,41.14,41.14,0,0,1-8.61.93h-16.3a98.93,98.93,0,0,1-38.59-7.42A51,51,0,0,1,1537.7,959h-32a51.94,51.94,0,0,1-10.57-1.08,87,87,0,0,1-21.08,2.45,97.91,97.91,0,0,1-35.57-6.67,51.14,51.14,0,0,1-22.39,5.3h-16.18c-18.81,0-35.47-4.34-49.56-12.89a93.89,93.89,0,0,1-11.75,6.09C1326.36,957.56,1311.59,960.42,1296,960.42Zm489.13-201.59"
            transform="translate(-123.2 -258.27)" />
    </g>
</svg>