<?xml version="1.0" encoding="utf-8"?>
<!-- Generator: Adobe Illustrator 25.3.1, SVG Export Plug-In . SVG Version: 6.00 Build 0)  -->
<svg version="1.1" xmlns="http://www.w3.org/2000/svg" xmlns:xlink="http://www.w3.org/1999/xlink" x="0px" y="0px"
	 viewBox="0 0 2551.18 737.01" style="enable-background:new 0 0 2551.18 737.01;" xml:space="preserve">
<style type="text/css">
	.st0{fill:none;stroke:#000000;stroke-width:2.8346;stroke-linecap:round;stroke-linejoin:round;}
	.st1{fill:none;stroke:#000000;stroke-width:23.7303;stroke-linecap:round;stroke-linejoin:round;}
	.st2{fill:none;stroke:#000000;stroke-width:23.4015;stroke-linecap:round;stroke-linejoin:round;}
</style>
<g id="DECOUPE">
	<path class="st0" d="M1963.32,334.62c-10.86,0.04-20.43-7.6-22.29-18.29c-2-11.5-8.87-22.07-19.72-28.41
		c-30.97-18.1-61.95-36.21-92.92-54.31c-3.63-2.05-10.35-5.18-19.23-5.53c-4.87-0.19-9,0.52-12.07,1.31
		c-22.76,3.65-35.19,39.57-46.14,56.06l-11.37,19.15c-8.46,14.25-11.48,22.98-28.05,22.98h-42.16c-19.13,0-22.31-15.51-22.31-34.64
		l2.8-225.82c0-23.7-19.21-42.92-42.92-42.92H42.92C19.21,24.21,0,43.42,0,67.13v602.76c0,23.7,19.21,42.92,42.92,42.92h2465.35
		c23.7,0,42.92-19.21,42.92-42.92V375.4c0-23.77-19.32-43.01-43.09-42.92L1963.32,334.62z"/>
	<circle class="st0" cx="183.69" cy="119.89" r="10.95"/>
	<circle class="st0" cx="1563.58" cy="119.89" r="10.95"/>
	<circle class="st0" cx="2522.64" cy="465.3" r="10.95"/>
</g>
<g id="_x38_MM">
	<g>
		<path class="st1" d="M309.21,571.58c-12.57,67.78-59.25,112.66-128.37,112.66c-78.1,0-137.8-53.41-137.8-155.75
			C43.04,427.5,96.45,366,181.74,366c74.51,0,121.64,47.58,127.48,107.73h-62.39c-8.53-33.67-35.01-53.86-64.64-53.86
			c-51.62,0-75.86,39.95-75.86,105.03c0,65.98,24.24,105.03,72.72,105.03c36.81,0,59.25-21.1,67.78-58.35H309.21z"/>
		<path class="st1" d="M534.14,673.92V540.16H417.89v133.76H355.5V375.88h62.39v112.22h116.26V375.88h62.84v298.04H534.14z"/>
		<path class="st1" d="M643.25,673.92V375.88h62.39v298.04H643.25z"/>
		<path class="st1" d="M753.03,673.92V375.88h131.52c58.35,0,95.61,42.64,95.61,96.51c0,54.31-37.26,93.36-95.61,93.36h-69.12
			v108.18H753.03z M874.68,515.03c35.91,0,50.72-18.4,50.72-44.44c0-24.69-14.81-43.09-50.72-43.09h-59.25v87.53H874.68z"/>
		<path class="st1" d="M1018.13,527.59c0-100.99,51.62-161.59,143.19-161.59c91.57,0,142.29,60.6,142.29,162.94
			s-50.72,155.31-142.29,155.31C1069.75,684.25,1018.13,628.14,1018.13,527.59z M1242.11,528.94c0-70.47-28.73-107.73-80.8-107.73
			c-52.52,0-81.69,37.26-81.69,107.73c0,70.47,30.07,101.89,81.69,101.89C1206.2,630.83,1242.11,599.41,1242.11,528.94z"/>
		<path class="st1" d="M1346.74,673.92V375.88h115.36c80.8,0,138.25,55.21,138.25,145.88s-51.62,152.16-128.82,152.16H1346.74z
			 M1458.95,623.2c54.31,0,77.65-34.11,77.65-101.44s-23.34-94.26-83.04-94.26h-46.23v195.7H1458.95z"/>
		<path class="st1" d="M1639.31,673.92V375.88h62.39v298.04H1639.31z"/>
		<path class="st1" d="M1747.52,673.92V375.88h219.05v52.07h-158.45v63.74H1954v52.52h-145.88v76.76h165.63v52.97H1747.52z
			 M1786.57,305.86l21.1-36.81l92.91,54.31l-13.92,24.69L1786.57,305.86z"/>
		<path class="st1" d="M2178.57,673.92v-76.76c0-28.73-10.77-39.95-46.68-39.95h-66.43v116.7h-60.6V375.88h151.27
			c55.21,0,91.57,36.81,91.57,86.18c0,31.87-15.71,58.8-44.44,69.12c26.48,8.53,36.36,23.34,36.36,58.35v84.39H2178.57z
			 M2065.46,427.5v79.45h78.1c33.22,0,45.78-16.61,45.78-39.5c0-23.34-12.57-39.95-43.54-39.95H2065.46z"/>
		<path class="st1" d="M2280.04,673.92V375.88h219.04v52.07h-158.45v63.74h145.88v52.52h-145.88v76.76h165.63v52.97H2280.04z"/>
	</g>
</g>
</svg>
