<?xml version="1.0" encoding="UTF-8"?>
<svg id="Calque_1" xmlns="http://www.w3.org/2000/svg" viewBox="0 0 1080 1080">
    <defs>
        <style>
            .cls-1 {
                /* fill: #1d1d1b; */
                color: red;
            }
        </style>
    </defs>
    <g>
        <path class="cls-1"
            d="M133.47,861.14h38.72l12.07-30.34h-38.61l-12.18,30.34Zm21.03-17.24h10.46l-1.61,4.14h-10.57l1.72-4.14Z" />
        <polygon class="cls-1" points="245.5 868.49 284.22 868.49 290.66 852.87 251.93 852.87 245.5 868.49" />
        <polygon class="cls-1" points="257.79 839.08 296.29 839.08 302.03 823.45 263.42 823.45 257.79 839.08" />
        <path class="cls-1"
            d="M478.87,861.14h38.72l12.07-30.34h-38.61l-12.18,30.34Zm21.03-17.24h10.46l-1.61,4.14h-10.57l1.72-4.14Z" />
        <path class="cls-1"
            d="M985.71,836.55l19.07-47.34h-328.86l-23.58,58.83h-39.04l23.56-58.83H350.98l-6.14,15.31-9.25-15.31H120.71l-45.5,113.53h218.55l16.39-11.65-4.67,11.65h435.14l18.84-47.34h-17.58l7.58-18.84h11l-2.95,7.35h29.41l-23.56,58.83h63.08l23.56-58.83h22.66l-23.58,58.83h110.19l18.84-47.34h-17.58l7.58-18.84h17.58Zm-797.44,53.09H94.51l35.05-87.33h93.65l-34.93,87.33Zm138.86-40.98l-.51-.84,1.19-.84-.68,1.68Zm-37.51,40.98h-79.97l35.05-87.33h83.54l6.09,10.11-7.7,19.3-17.47,12.41,7.47,12.41-7.7,19.3-19.3,13.79Zm128.92,0h-93.76l8.5-21.14h66.07l6.43-15.63h-66.3l20.34-50.56h93.65l-8.5,21.14h-66.41l-5.63,15.63h65.84l-20.22,50.56Zm115.13,0h-93.76l35.05-87.33h93.65l-34.93,87.33Zm93.76,0h-72.39l35.05-87.33h27.46l-23.56,58.83h44.81l-11.38,28.5Zm76.07-66.19l-5.63,15.63h36.42l-5.52,13.79h-36.77l-6.43,15.63h54.58l-8.39,21.14h-82.04l35.05-87.33h81.93l-8.5,21.14h-54.69Zm137.66,7.35l-23.56,58.83h-34.93l23.56-58.83h-29.42l11.49-28.5h93.65l-11.38,28.5h-29.42Zm109.27,58.83h-82.04l35.05-87.33h81.93l-8.5,21.14h-54.69l-5.63,15.63h36.42l-5.52,13.79h-36.77l-6.43,15.63h54.58l-8.39,21.14Z" />
    </g>
    <g>
        <path class="cls-1"
            d="M672.36,553.3H414.05c-4.69,0-8.5-3.81-8.5-8.5s3.81-8.5,8.5-8.5h258.3c4.69,0,8.5,3.81,8.5,8.5s-3.81,8.5-8.5,8.5Z" />
        <path class="cls-1"
            d="M672.36,611.14H414.05c-4.69,0-8.5-3.81-8.5-8.5s3.81-8.5,8.5-8.5h258.3c4.69,0,8.5,3.81,8.5,8.5s-3.81,8.5-8.5,8.5Z" />
        <path class="cls-1"
            d="M672.36,668.97H414.05c-4.69,0-8.5-3.81-8.5-8.5s3.81-8.5,8.5-8.5h258.3c4.69,0,8.5,3.81,8.5,8.5s-3.81,8.5-8.5,8.5Z" />
        <g>
            <path class="cls-1"
                d="M630.5,246.55h-41.95c-10.78,0-19.55,8.76-19.55,19.54v82.3c0,10.77,8.77,19.54,19.55,19.54h41.95c10.77,0,19.54-8.77,19.54-19.54v-82.3c0-10.78-8.77-19.54-19.54-19.54Zm2.79,101.84c0,1.54-1.25,2.79-2.79,2.79h-41.95c-1.54,0-2.79-1.25-2.79-2.79v-82.3c0-1.54,1.25-2.79,2.79-2.79h41.95c1.54,0,2.79,1.25,2.79,2.79v82.3Z" />
            <path class="cls-1"
                d="M717.36,320.93h7.9v21.21h12.92v-21.21h8.08c-5.16-10.71-10.33-21.43-15.49-32.14-4.47,10.71-8.93,21.43-13.4,32.14Z" />
            <path class="cls-1"
                d="M306.44,286.67c-1.45-1.98-2.99-3.86-4.62-5.63v36.17c5.22,3.22,11.03,4.42,16.53,4.95,.04,0,.08,.01,.12,.02v-10.71h.02v-.15c-3.01-9.59-7.02-17.76-12.05-24.65Zm487.43-21.9l-47.34-47.34c-1.57-1.58-3.7-2.46-5.92-2.46H393.73v-.02h-14.54s.02,.04,.02,.07h-6.88c7.78,8.05,17.47,13.73,29.16,17.17h26.45l.13,.04h1.23v135.3c0,5.35,1.34,10.4,3.7,14.82h-36.53c-7.4,0-13.43-6.65-13.43-14.82v-5.3h.11v-91.74c-6.69,4.55-12.18,10.2-16.66,16.6v44.52l-.2,.77v35.15c0,17.41,13.54,31.57,30.18,31.57h259.67c16.64,0,30.18-14.16,30.18-31.57V231.73h50.82l42.44,42.43v431.12c0,4.83-3.95,8.79-8.79,8.79h-26.45l-.63-268.39c0-17.41-14.16-31.58-31.57-31.58H378.53c-17.43,0-31.57,14.13-31.57,31.57v268.4h-19.68c-4.83,0-8.79-3.96-8.79-8.79V346.99s0,.01-.02,.01v-2.34c-.12,.01-.25,.02-.37,.03-6.31,.45-11.75,2.13-16.28,5.05v30.52l-.08,.29v324.73c0,14.1,11.44,25.54,25.54,25.54h443.51c14.11,0,25.54-11.44,25.54-25.54V270.69c0-2.22-.88-4.35-2.46-5.92Zm-124.3,102.76c0,8.18-6.63,14.82-14.82,14.82h-193.88c-8.18,0-14.82-6.64-14.82-14.82v-107.4l-.09,.02v-27.92h223.61v135.3Zm-305.86,346.54V445.68c0-8.18,6.65-14.82,14.82-14.82h333.61c8.17,0,14.82,6.64,14.82,14.84l.63,268.37H363.71Z" />
        </g>
        <path class="cls-1"
            d="M418.78,246.58c-53.66-5.13-79.55-41.14-81.71-106.37-.1-.48-.25-.8-.43-.8-.16,0-.3,.27-.4,.68-3.43,61.64-21.65,96.05-78.49,106.43-.65,.12-.67,1.02-.02,1.13,51.45,8.56,75.94,42.53,78.47,106.87,.1,.41,.24,.69,.4,.69,.18,0,.33-.31,.43-.79,1.99-65.29,30.87-103.12,81.76-106.71,.67-.05,.65-1.07-.02-1.13Z" />
        <path class="cls-1"
            d="M317.31,333.12c-28.6-2.73-42.4-21.92-43.54-56.69-.05-.26-.13-.42-.23-.42-.09,0-.16,.14-.21,.36-1.83,32.85-11.54,51.19-41.83,56.72-.35,.06-.36,.54,0,.6,27.42,4.56,40.47,22.67,41.82,56.95,.05,.22,.13,.37,.21,.37,.09,0,.18-.17,.23-.42,1.06-34.79,16.45-54.95,43.58-56.87,.36-.03,.35-.57,0-.6Z" />
    </g>
</svg>